<?xml version="1.0" encoding="UTF-8" ?>
<!DOCTYPE svg PUBLIC "-//W3C//DTD SVG 1.1//EN" "http://www.w3.org/Graphics/SVG/1.1/DTD/svg11.dtd">
<svg width="276pt" height="295pt" viewBox="0 0 276 295" version="1.1" xmlns="http://www.w3.org/2000/svg">
<g id="#fbfbfbff">
</g>
<g id="#171515ff">
<path fill="#171515" opacity="1.00" d=" M 68.72 7.73 C 90.63 -1.08 115.49 -0.89 137.84 6.23 C 142.50 8.04 146.87 10.47 151.36 12.65 C 154.66 14.26 158.08 16.57 159.17 20.27 C 159.51 24.10 158.70 27.92 158.50 31.74 C 155.71 56.30 152.19 81.00 144.22 104.50 C 137.57 123.97 126.93 141.96 113.76 157.72 C 101.51 173.27 87.42 187.27 72.79 200.55 C 98.40 204.78 124.18 208.37 150.14 209.57 C 186.19 211.41 221.95 204.95 257.19 198.17 C 263.37 197.06 269.75 194.30 276.00 196.55 L 276.00 200.15 C 274.72 203.67 273.60 207.25 272.80 210.91 C 270.23 222.06 265.38 232.60 259.20 242.20 C 252.43 252.82 243.37 261.74 233.73 269.75 C 235.76 273.17 238.51 276.69 238.03 280.93 C 237.73 288.26 230.39 294.11 223.16 292.85 C 217.45 292.51 214.30 287.28 211.68 282.89 C 202.74 286.00 193.69 288.92 184.28 290.16 C 177.77 290.81 171.34 294.31 164.76 292.15 C 156.47 289.59 147.68 289.29 139.45 286.52 C 135.75 285.28 132.10 283.93 128.51 282.40 C 127.05 285.19 125.60 288.09 123.26 290.27 C 120.87 292.55 117.32 293.09 114.14 292.86 C 109.07 292.52 104.92 288.54 102.85 284.14 C 100.55 279.10 103.98 274.02 106.84 270.05 C 100.51 264.44 93.75 259.19 88.67 252.33 C 76.88 238.35 69.11 221.22 65.72 203.28 C 57.00 199.51 48.73 194.69 41.46 188.53 C 36.33 184.02 30.72 179.94 26.55 174.46 C 17.93 163.94 10.99 151.96 7.13 138.87 C 1.76 124.97 1.45 109.84 2.28 95.16 C 4.08 81.12 7.45 66.99 14.78 54.73 C 27.49 34.20 45.70 16.15 68.72 7.73 M 38.22 31.21 C 17.85 49.93 6.15 77.42 5.89 105.00 C 5.50 133.25 17.07 161.80 38.23 180.76 C 47.48 188.93 57.83 196.59 69.95 199.74 C 80.04 189.56 90.32 179.56 100.03 169.00 C 116.53 150.66 131.72 130.42 139.90 106.87 C 148.65 83.49 151.80 58.56 155.16 33.97 C 155.81 29.48 156.36 24.74 154.65 20.41 C 152.74 17.91 149.82 16.43 147.16 14.85 C 134.66 8.77 120.88 5.64 107.03 4.92 C 81.92 4.85 56.62 13.94 38.22 31.21 M 260.61 200.60 C 233.63 205.86 206.51 211.08 179.00 212.47 C 163.10 213.75 147.15 212.57 131.28 211.44 C 110.77 209.79 90.51 206.11 70.11 203.65 C 74.60 226.62 86.61 248.31 104.78 263.23 C 113.26 270.67 123.44 275.72 133.67 280.27 C 127.60 272.45 131.95 262.09 129.63 253.24 C 128.78 250.44 125.77 249.37 123.53 247.94 C 123.50 247.22 123.45 245.76 123.43 245.03 C 125.75 243.65 128.84 242.57 129.55 239.63 C 131.42 232.61 129.16 225.14 131.22 218.15 C 132.44 213.52 138.31 211.73 142.36 213.62 C 142.60 214.82 142.71 216.05 142.85 217.27 C 140.71 218.13 137.18 217.76 136.73 220.68 C 135.37 227.22 137.18 234.06 135.42 240.55 C 134.68 243.15 132.45 244.84 130.49 246.52 C 132.50 248.11 134.87 249.73 135.48 252.39 C 137.18 259.31 135.38 266.53 136.68 273.50 C 137.23 276.25 140.66 275.81 142.72 276.60 C 142.68 277.86 142.64 279.12 142.61 280.39 C 140.96 280.76 139.31 281.11 137.67 281.50 C 145.73 284.17 154.10 285.88 162.57 286.54 C 169.36 287.81 176.21 286.61 183.00 286.01 C 205.51 283.45 226.66 272.54 242.81 256.82 C 252.94 245.94 261.30 233.18 266.09 219.05 C 268.66 212.82 269.07 205.95 271.90 199.82 C 268.13 198.67 264.30 199.68 260.61 200.60 M 109.94 271.86 C 108.11 273.92 106.10 276.19 105.91 279.09 C 105.60 283.47 108.21 288.40 112.81 289.29 C 118.47 291.55 123.70 286.27 125.13 281.14 C 119.94 278.26 114.79 275.29 109.94 271.86 M 215.70 280.45 C 216.14 282.67 216.39 285.21 218.19 286.82 C 220.09 288.54 222.64 289.37 225.12 289.86 C 230.25 290.00 234.70 285.10 234.24 280.00 C 234.59 276.83 232.63 274.23 230.90 271.81 C 226.00 274.97 221.14 278.27 215.70 280.45 Z" />
<path fill="#171515" opacity="1.00" d=" M 30.39 52.30 C 33.02 51.18 35.82 52.43 37.25 54.77 C 40.20 58.19 38.59 62.88 37.77 66.79 C 35.87 73.59 32.52 80.40 26.62 84.61 C 24.57 86.19 21.81 86.36 19.35 85.82 C 16.87 84.08 16.14 80.84 16.03 77.98 C 16.12 69.61 20.39 61.93 25.76 55.75 C 27.05 54.31 28.55 52.98 30.39 52.30 M 30.76 57.71 C 24.31 63.67 20.45 72.66 20.95 81.47 C 22.93 80.78 25.07 80.13 26.48 78.48 C 30.53 73.13 33.40 66.74 34.03 60.02 C 34.39 58.04 32.48 55.78 30.76 57.71 Z" />
<path fill="#171515" opacity="1.00" d=" M 249.39 55.17 C 252.49 54.81 255.58 54.18 258.71 54.24 C 261.22 55.57 264.02 57.83 263.80 61.00 C 264.16 63.69 261.96 65.55 260.27 67.26 C 253.74 73.41 247.40 79.84 242.10 87.11 C 238.99 91.32 236.72 96.05 233.79 100.38 C 232.62 98.51 231.09 96.46 231.85 94.11 C 234.10 86.39 239.58 80.25 244.09 73.78 C 218.94 82.59 197.25 100.57 182.99 122.99 C 172.49 139.63 166.15 158.85 164.63 178.47 C 164.14 184.90 164.82 191.37 164.09 197.80 C 163.31 197.78 161.74 197.76 160.96 197.75 C 158.65 177.37 161.91 156.46 169.43 137.42 C 182.09 104.49 209.31 77.75 242.20 65.13 C 230.12 65.53 218.10 67.01 206.02 67.26 C 202.00 67.17 202.68 61.56 204.06 59.05 C 206.24 58.18 208.66 58.45 210.96 58.26 C 223.79 57.58 236.63 56.75 249.39 55.17 Z" />
<path fill="#171515" opacity="1.00" d=" M 191.85 213.06 C 195.40 212.90 200.01 212.55 202.15 216.09 C 205.70 223.36 202.96 231.76 204.62 239.41 C 205.31 242.30 208.73 242.66 211.02 243.70 C 211.72 248.32 205.75 248.77 204.87 252.70 C 202.80 260.76 205.72 269.55 202.40 277.36 C 200.54 281.37 195.56 281.18 191.84 280.93 C 191.84 279.44 191.83 277.96 191.82 276.48 C 193.59 275.76 196.54 276.37 197.23 274.11 C 199.23 267.19 197.26 259.82 198.86 252.83 C 199.53 249.87 201.62 247.57 203.65 245.44 C 201.77 244.04 199.34 242.82 198.73 240.35 C 197.21 233.36 199.41 225.90 197.04 219.05 C 195.52 217.99 193.55 218.00 191.82 217.52 C 191.84 216.03 191.85 214.54 191.85 213.06 Z" />
<path fill="#171515" opacity="1.00" d=" M 147.44 217.03 C 149.78 217.11 152.26 216.64 154.50 217.47 C 158.83 223.57 161.72 230.57 166.03 236.70 C 169.90 230.89 172.92 224.58 176.59 218.66 C 178.05 215.84 181.74 217.35 184.23 217.19 C 180.41 225.90 174.73 233.63 170.25 241.99 C 174.90 250.71 180.95 258.72 184.62 267.92 C 181.99 267.63 178.21 269.21 176.73 266.21 C 172.76 259.96 169.61 253.21 165.72 246.90 C 161.77 253.01 158.55 259.56 154.86 265.82 C 153.49 269.10 149.43 267.75 146.70 267.87 C 150.46 258.73 157.06 251.05 160.96 242.01 C 157.20 233.31 150.70 225.98 147.44 217.03 Z" />
</g>
</svg>
